<?xml version="1.0" encoding="UTF-8"?> <svg xmlns="http://www.w3.org/2000/svg" width="658" height="102" viewBox="0 0 658 102" fill="none"> <g clip-path="url(#clip0)"> <path d="M0 101V1.28H61.73V101H47.94V58.52H13.66V101H0ZM13.66 43.9H47.94V16H13.66V43.9Z" fill="#1D1D1B"></path> <path d="M160.83 16.66L90.1199 51L160.83 85.17V102L87.4499 66.64V101H73.6499V1.28H87.4499V35.45L160.83 0V16.66Z" fill="#1D1D1B"></path> <path d="M171.54 100.66V1.28H225V40.44H251.25V41.44H251.39V100.67L171.54 100.66ZM211.18 16H185.34V40.44H211.18V16ZM237.56 86V55H185.34V86H237.56Z" fill="#1D1D1B"></path> <path d="M263.27 101V1.28H325V101H311.2V58.52H276.93V101H263.27ZM276.93 43.9H311.21V16H276.93V43.9Z" fill="#1D1D1B"></path> <path d="M387 12C393.528 18.9811 397.111 28.2126 397 37.77C397.031 47.2711 393.457 56.4305 387 63.4C383.934 66.7654 380.189 69.4416 376.012 71.2517C371.835 73.0617 367.322 73.9644 362.77 73.9H351V100.66H336.93V1.28H362.77C367.332 1.28534 371.843 2.24137 376.014 4.0871C380.186 5.93284 383.928 8.62777 387 12ZM383.12 37.77C383.12 25.95 373.88 16.13 362.76 16.13H351V59H362.78C373.89 59 383.13 49.55 383.13 37.73L383.12 37.77Z" fill="#1D1D1B"></path> <path d="M419.41 1.28L419.28 87.71H429.46L438.7 1.28H476.06V101H461.33V14.67H451.33L442.45 101H405.09V1.28H419.41Z" fill="#1D1D1B"></path> <path d="M488.11 1.28H501.9V51.12H537.39V1.28H551.18V65.64H526.54V101H512.75V65.64H488.11V1.28Z" fill="#1D1D1B"></path> <path d="M584.13 14.38H576.13V101H561.9V1.28H597.12L605.82 87.28H613.59L622.29 1.28H657.51V101H642.78L643.05 14.72H635.15L625.51 101H593.51L584.13 14.38Z" fill="#1D1D1B"></path> </g> <defs> <clipPath id="clip0"> <rect width="657.51" height="101.95" fill="white"></rect> </clipPath> </defs> </svg> 