<svg width="22" height="23" viewBox="0 0 22 23" fill="none" xmlns="http://www.w3.org/2000/svg">
<path d="M11.8974 11.5L20.9679 2.4295C21.2158 2.1816 21.2158 1.78001 20.9679 1.53211C20.72 1.28422 20.3184 1.28422 20.0705 1.53211L11 10.6027L1.92947 1.53211C1.68157 1.28422 1.27998 1.28422 1.03208 1.53211C0.784187 1.78001 0.784187 2.1816 1.03208 2.4295L10.1026 11.5L1.03208 20.5706C0.784187 20.8185 0.784187 21.2201 1.03208 21.468C1.15603 21.5919 1.31799 21.6539 1.48078 21.6539C1.64356 21.6539 1.80552 21.5919 1.92947 21.468L11 12.3974L20.0705 21.468C20.1945 21.5919 20.3565 21.6539 20.5192 21.6539C20.682 21.6539 20.844 21.5919 20.9679 21.468C21.2158 21.2201 21.2158 20.8185 20.9679 20.5706L11.8974 11.5Z" fill="white"/>
</svg>
