<svg width="30" height="30" viewBox="0 0 30 30" fill="none" xmlns="http://www.w3.org/2000/svg">
<path d="M28.8084 0H1.19181C0.641276 0 0.194824 0.446452 0.194824 0.996989V5.93518C0.194824 6.48571 0.641276 6.93216 1.19181 6.93216H2.42529L11.5356 17.6395V29.003C11.5356 29.3707 11.738 29.7085 12.0621 29.882C12.2095 29.9609 12.3713 30 12.5325 30C12.7259 30 12.9188 29.9438 13.0856 29.8325L18.0207 26.5424C18.2981 26.3576 18.4646 26.0462 18.4646 25.7129V17.6395L27.5749 6.93216H28.8084C29.3589 6.93216 29.8054 6.48571 29.8054 5.93518V0.996989C29.8054 0.446452 29.359 0 28.8084 0ZM16.7084 16.6268C16.5549 16.8071 16.4707 17.0361 16.4707 17.2728V25.1795L13.5296 27.1401V17.2728C13.5296 17.0361 13.4453 16.807 13.2919 16.6268L5.04338 6.93216H24.9568L16.7084 16.6268ZM27.8114 4.93819H2.1888V1.99398H27.8114V4.93819Z" fill="black"/>
</svg>
